<svg width="56" height="62" viewBox="0 0 56 62" fill="none" xmlns="http://www.w3.org/2000/svg">
<g filter="url(#filter0_d_528_876)">
<mask id="path-1-outside-1_528_876" maskUnits="userSpaceOnUse" x="13" y="8.33331" width="30" height="40" fill="black">
<rect fill="white" x="13" y="8.33331" width="30" height="40"/>
<path fill-rule="evenodd" clip-rule="evenodd" d="M42 23.3333C42 15.6013 35.732 9.33331 28 9.33331C20.268 9.33331 14 15.6013 14 23.3333C14 33.0061 22.5416 41.967 27.3679 46.1306C27.7334 46.4459 28.2666 46.4459 28.6321 46.1306C33.4584 41.967 42 33.0061 42 23.3333Z"/>
</mask>
<path fill-rule="evenodd" clip-rule="evenodd" d="M42 23.3333C42 15.6013 35.732 9.33331 28 9.33331C20.268 9.33331 14 15.6013 14 23.3333C14 33.0061 22.5416 41.967 27.3679 46.1306C27.7334 46.4459 28.2666 46.4459 28.6321 46.1306C33.4584 41.967 42 33.0061 42 23.3333Z" fill="#FF9C24"/>
<path d="M27.3679 46.1306L26.7147 46.8877L27.3679 46.1306ZM28.6321 46.1306L29.2853 46.8877L28.6321 46.1306ZM28 10.3333C35.1797 10.3333 41 16.1536 41 23.3333H43C43 15.049 36.2843 8.33331 28 8.33331V10.3333ZM15 23.3333C15 16.1536 20.8203 10.3333 28 10.3333V8.33331C19.7157 8.33331 13 15.049 13 23.3333H15ZM13 23.3333C13 28.4561 15.256 33.3144 18.051 37.3658C20.8535 41.428 24.2616 44.7715 26.7147 46.8877L28.0211 45.3734C25.648 43.3261 22.3721 40.1074 19.6972 36.23C17.0148 32.3419 15 27.8833 15 23.3333H13ZM26.7147 46.8877C27.4555 47.5268 28.5445 47.5268 29.2853 46.8877L27.9789 45.3734C27.9788 45.3734 27.9795 45.3729 27.981 45.372C27.9824 45.3711 27.9842 45.3703 27.9864 45.3695C27.9907 45.3679 27.9954 45.367 28 45.367C28.0046 45.367 28.0093 45.3679 28.0136 45.3695C28.0158 45.3703 28.0176 45.3711 28.019 45.372C28.0205 45.3729 28.0212 45.3734 28.0211 45.3734L26.7147 46.8877ZM29.2853 46.8877C31.7384 44.7715 35.1465 41.428 37.949 37.3658C40.744 33.3144 43 28.4561 43 23.3333H41C41 27.8833 38.9852 32.3419 36.3028 36.23C33.6279 40.1074 30.3521 43.3261 27.9789 45.3734L29.2853 46.8877Z" fill="white" mask="url(#path-1-outside-1_528_876)"/>
</g>
<ellipse cx="27.9999" cy="23.3333" rx="7.77778" ry="7.77778" fill="white"/>
<defs>
<filter id="filter0_d_528_876" x="3" y="2.33331" width="50" height="59.0338" filterUnits="userSpaceOnUse" color-interpolation-filters="sRGB">
<feFlood flood-opacity="0" result="BackgroundImageFix"/>
<feColorMatrix in="SourceAlpha" type="matrix" values="0 0 0 0 0 0 0 0 0 0 0 0 0 0 0 0 0 0 127 0" result="hardAlpha"/>
<feOffset dy="4"/>
<feGaussianBlur stdDeviation="5"/>
<feComposite in2="hardAlpha" operator="out"/>
<feColorMatrix type="matrix" values="0 0 0 0 0 0 0 0 0 0 0 0 0 0 0 0 0 0 0.15 0"/>
<feBlend mode="normal" in2="BackgroundImageFix" result="effect1_dropShadow_528_876"/>
<feBlend mode="normal" in="SourceGraphic" in2="effect1_dropShadow_528_876" result="shape"/>
</filter>
</defs>
</svg>
