<svg width="40" height="40" viewBox="0 0 40 40" fill="none" xmlns="http://www.w3.org/2000/svg">
<rect x="2" y="2" width="36" height="36" rx="14" fill="#00945F"/>
<path fill-rule="evenodd" clip-rule="evenodd" d="M22.1151 14.6305C24.1111 16.6265 24.1111 19.8627 22.1151 21.8587C20.1191 23.8547 16.8829 23.8547 14.8869 21.8587C12.8909 19.8627 12.8909 16.6265 14.8869 14.6305C16.8829 12.6345 20.1191 12.6345 22.1151 14.6305ZM24.2426 22.4416C26.2815 19.6597 26.0437 15.7307 23.5293 13.2163C20.7522 10.4392 16.2497 10.4392 13.4727 13.2163C10.6956 15.9933 10.6956 20.4958 13.4727 23.2729C16.0401 25.8404 20.0824 26.0341 22.8725 23.8542C22.9041 23.8983 22.9397 23.9404 22.9793 23.98L26.5934 27.5941C26.9839 27.9846 27.6171 27.9846 28.0076 27.5941C28.3981 27.2036 28.3981 26.5704 28.0076 26.1799L24.3935 22.5658C24.3465 22.5187 24.2959 22.4773 24.2426 22.4416Z" fill="white"/>
</svg>
