<svg width="36" height="36" viewBox="0 0 36 36" fill="none" xmlns="http://www.w3.org/2000/svg">
<path fill-rule="evenodd" clip-rule="evenodd" d="M20.5563 11.7825C22.8995 14.1257 22.8995 17.9246 20.5563 20.2678C18.2132 22.6109 14.4142 22.6109 12.0711 20.2678C9.72792 17.9246 9.72792 14.1257 12.0711 11.7825C14.4142 9.43936 18.2132 9.43936 20.5563 11.7825ZM22.6327 20.9326C25.0765 17.7941 24.8557 13.2535 21.9706 10.3683C18.8464 7.2441 13.781 7.2441 10.6569 10.3683C7.53266 13.4925 7.53266 18.5578 10.6569 21.682C13.542 24.5672 18.0827 24.7879 21.2212 22.3442C21.2347 22.3595 21.2488 22.3745 21.2635 22.3891L25.5061 26.6317C25.8966 27.0223 26.5298 27.0223 26.9203 26.6317C27.3108 26.2412 27.3108 25.6081 26.9203 25.2175L22.6777 20.9749C22.663 20.9603 22.648 20.9462 22.6327 20.9326Z" fill="#EA6E3F"/>
</svg>
