<svg width="36" height="36" viewBox="0 0 36 36" fill="none" xmlns="http://www.w3.org/2000/svg">
<path fill-rule="evenodd" clip-rule="evenodd" d="M9 20C7.89543 20 7 19.1046 7 18V11C7 9.89543 7.89543 9 9 9C10.1046 9 11 9.89543 11 11V18C11 19.1046 10.1046 20 9 20Z" fill="#3F3F42"/>
<path d="M14.3682 12.186V17.9763C14.3682 19.0575 14.8058 20.0925 15.5814 20.8458L21.9759 27.0561C22.6541 27.7147 23.7295 27.8227 24.3309 27.0933C24.6679 26.6847 24.9541 26.2084 25.0461 25.7169C25.2495 24.6305 24.7919 23.7004 24.5377 23.3712L23.4522 22.2167C22.8521 21.5784 23.3047 20.5317 24.1808 20.5317H27.3682C28.4727 20.5317 29.3682 19.6363 29.3682 18.5317V17.9596C29.3682 17.4566 29.2733 16.9582 29.0885 16.4903L26.3086 9.45138C26.007 8.68777 25.2694 8.18604 24.4484 8.18604H18.3682C16.159 8.18604 14.3682 9.9769 14.3682 12.186Z" fill="white"/>
<path fill-rule="evenodd" clip-rule="evenodd" d="M20.911 28.5874C21.8648 29.5137 23.6448 29.8646 24.7343 28.5434C25.122 28.0732 25.5247 27.4424 25.6609 26.7148C25.9296 25.2797 25.3418 24.0671 24.961 23.5739L24.9313 23.5355L23.8127 22.3456H27C28.6569 22.3456 30 21.0025 30 19.3456V18.7736C30 18.1448 29.8814 17.5217 29.6505 16.9369L26.8705 9.89797C26.4181 8.75256 25.3117 7.99995 24.0802 7.99995H18C15.2386 7.99995 13 10.2385 13 13V18.7902C13 20.1417 13.547 21.4355 14.5165 22.3771L20.911 28.5874ZM22.8563 27.41C22.6891 27.4029 22.4794 27.3226 22.3044 27.1527L15.9099 20.9423C15.3282 20.3774 15 19.6011 15 18.7902V13C15 11.3431 16.3431 9.99995 18 9.99995H24.0802C24.4907 9.99995 24.8595 10.2508 25.0103 10.6326L27.7903 17.6716C27.9288 18.0225 28 18.3963 28 18.7736V19.3456C28 19.8979 27.5523 20.3456 27 20.3456H23.8127C22.0604 20.3456 21.1553 22.4389 22.3555 23.7156L23.3995 24.8261C23.5385 25.0294 23.826 25.6475 23.695 26.3468C23.6472 26.6023 23.4773 26.9241 23.1912 27.271C23.1108 27.3686 23.0063 27.4164 22.8563 27.41Z" fill="#3F3F42"/>
</svg>
