<svg width="36" height="36" viewBox="0 0 36 36" fill="none" xmlns="http://www.w3.org/2000/svg">
<path fill-rule="evenodd" clip-rule="evenodd" d="M9 17C7.89543 17 7 17.8954 7 19V26C7 27.1046 7.89543 28 9 28C10.1046 28 11 27.1046 11 26V19C11 17.8954 10.1046 17 9 17Z" fill="#00945F"/>
<path d="M14 24.186V18.3958C14 17.3146 14.4376 16.2795 15.2132 15.5263L21.6077 9.31596C22.2859 8.65734 23.3613 8.54942 23.9628 9.27876C24.2997 9.68735 24.586 10.1637 24.678 10.6552C24.8814 11.7416 24.4237 12.6716 24.1695 13.0009L23.0841 14.1554C22.484 14.7937 22.9365 15.8404 23.8127 15.8404H27C28.1046 15.8404 29 16.7358 29 17.8404V18.4124C29 18.9154 28.9051 19.4139 28.7204 19.8817L25.9404 26.9207C25.6388 27.6843 24.9012 28.186 24.0802 28.186H18C15.7909 28.186 14 26.3952 14 24.186Z" fill="white"/>
<path fill-rule="evenodd" clip-rule="evenodd" d="M20.911 8.41261C21.8648 7.48634 23.6448 7.13535 24.7343 8.45656C25.122 8.92678 25.5247 9.55764 25.6609 10.2852C25.9296 11.7203 25.3418 12.9329 24.961 13.4261L24.9313 13.4645L23.8127 14.6544H27C28.6569 14.6544 30 15.9975 30 17.6544V18.2264C30 18.8552 29.8814 19.4783 29.6505 20.0631L26.8705 27.102C26.4181 28.2474 25.3117 29 24.0802 29H18C15.2386 29 13 26.7615 13 24V18.2098C13 16.8583 13.547 15.5645 14.5165 14.6229L20.911 8.41261ZM22.8563 9.58999C22.6891 9.59707 22.4794 9.67743 22.3044 9.84734L15.9099 16.0577C15.3282 16.6226 15 17.3989 15 18.2098V24C15 25.6569 16.3431 27 18 27H24.0802C24.4907 27 24.8595 26.7492 25.0103 26.3674L27.7903 19.3284C27.9288 18.9775 28 18.6037 28 18.2264V17.6544C28 17.1021 27.5523 16.6544 27 16.6544H23.8127C22.0604 16.6544 21.1553 14.5611 22.3555 13.2844L23.3995 12.1739C23.5385 11.9706 23.826 11.3525 23.695 10.6532C23.6472 10.3977 23.4773 10.0759 23.1912 9.72898C23.1108 9.63144 23.0063 9.58365 22.8563 9.58999Z" fill="#00945F"/>
</svg>
