<svg width="28" height="28" viewBox="0 0 28 28" fill="none" xmlns="http://www.w3.org/2000/svg">
<path fill-rule="evenodd" clip-rule="evenodd" d="M14.0958 5.94797C14.5432 5.94538 14.9038 6.30597 14.9012 6.75337L14.8642 13.1358L21.2466 13.0988C21.694 13.0962 22.0546 13.4568 22.052 13.9042C22.0494 14.3516 21.6846 14.7164 21.2372 14.719L14.8548 14.756L14.8167 21.3349C14.8141 21.7823 14.4493 22.1471 14.0019 22.1497C13.5545 22.1523 13.194 21.7917 13.1965 21.3443L13.2346 14.7653L6.65566 14.8034C6.20826 14.806 5.84768 14.4454 5.85027 13.998C5.85286 13.5506 6.21765 13.1859 6.66505 13.1833L13.244 13.1452L13.281 6.76275C13.2836 6.31535 13.6484 5.95056 14.0958 5.94797Z" fill="#222120"/>
</svg>
