<svg width="36" height="36" viewBox="0 0 36 36" fill="none" xmlns="http://www.w3.org/2000/svg">
<path fill-rule="evenodd" clip-rule="evenodd" d="M24.364 24.3637C20.8492 27.8784 15.1508 27.8784 11.636 24.3637C8.12132 20.849 8.12132 15.1505 11.636 11.6358C15.1508 8.12108 20.8492 8.12108 24.364 11.6358C27.8787 15.1505 27.8787 20.849 24.364 24.3637ZM12.3934 22.1924L22.1926 12.3931C19.4508 10.3374 15.5439 10.5564 13.0503 13.05C10.5566 15.5436 10.3377 19.4506 12.3934 22.1924ZM13.8076 23.6066C16.5494 25.6621 20.4562 25.4431 22.9497 22.9495C25.4433 20.4559 25.6623 16.5492 23.6068 13.8074L13.8076 23.6066Z" fill="black"/>
</svg>
