<svg width="28" height="28" viewBox="0 0 28 28" fill="none" xmlns="http://www.w3.org/2000/svg">
<path fill-rule="evenodd" clip-rule="evenodd" d="M15.5495 5.25847C15.8263 5.56546 15.8257 6.02408 15.5481 6.28283C15.3969 6.42378 15.3055 6.6057 15.2857 6.81113C15.2661 7.013 15.3175 7.21814 15.4323 7.40652L15.4386 7.41644C15.7276 7.88035 15.88 8.42986 15.8257 8.991C15.7714 9.55214 15.5199 10.0267 15.1529 10.3689C14.8754 10.6276 14.426 10.5885 14.1492 10.2815C13.8725 9.97452 13.8731 9.5159 14.1506 9.25714C14.3018 9.1162 14.3932 8.93428 14.4131 8.72884C14.4326 8.52698 14.3812 8.32185 14.2665 8.13347L14.2602 8.12354C13.9712 7.65963 13.8187 7.11012 13.873 6.54898C13.9273 5.98784 14.1788 5.51329 14.5458 5.17113C14.8234 4.91237 15.2727 4.95148 15.5495 5.25847ZM18.157 12.6608H8.35423L8.67506 16.4352C8.76988 17.5507 9.70298 18.4079 10.8225 18.4079H15.6888C16.8083 18.4079 17.7414 17.5507 17.8362 16.4352L18.157 12.6608ZM19.3547 15.5343L19.2678 16.5569C19.1098 18.4161 17.5546 19.8447 15.6888 19.8447H10.8225C8.95664 19.8447 7.40148 18.4161 7.24345 16.5569L6.85639 12.0032C6.82075 11.584 7.15143 11.224 7.57219 11.224H18.9391C18.9605 11.224 18.9817 11.2249 19.0027 11.2268V11.224H20.4395C21.6297 11.224 22.5946 12.1889 22.5946 13.3792C22.5946 14.5694 21.6297 15.5343 20.4395 15.5343H19.3547ZM19.4769 14.0976H20.4395C20.8362 14.0976 21.1578 13.7759 21.1578 13.3792C21.1578 12.9824 20.8362 12.6608 20.4395 12.6608H19.599L19.4769 14.0976ZM6.79016 21.2816C6.79016 20.8849 7.11179 20.5632 7.50855 20.5632L19.0027 20.5632C19.3995 20.5632 19.7211 20.8849 19.7211 21.2816C19.7211 21.6784 19.3995 22 19.0027 22H7.50855C7.11179 22 6.79016 21.6784 6.79016 21.2816ZM12.305 5.25847C12.5818 5.56546 12.5811 6.02408 12.3036 6.28283C12.1524 6.42378 12.061 6.6057 12.0412 6.81113C12.0254 6.97368 12.0557 7.13835 12.128 7.29469C12.1619 7.33157 12.193 7.37222 12.2206 7.41644C12.5096 7.88035 12.662 8.42986 12.6077 8.991C12.5534 9.55214 12.3019 10.0267 11.9349 10.3689C11.6574 10.6276 11.208 10.5885 10.9312 10.2815C10.6545 9.97452 10.6551 9.5159 10.9326 9.25714C11.0838 9.1162 11.1752 8.93428 11.1951 8.72884C11.2108 8.5663 11.1805 8.40163 11.1082 8.24529C11.0743 8.20841 11.0432 8.16776 11.0157 8.12354C10.7266 7.65963 10.5742 7.11012 10.6285 6.54898C10.6828 5.98784 10.9343 5.51329 11.3013 5.17113C11.5789 4.91237 12.0282 4.95148 12.305 5.25847Z" fill="#FFA233"/>
</svg>
