<svg width="28" height="28" viewBox="0 0 28 28" fill="none" xmlns="http://www.w3.org/2000/svg">
<rect width="28" height="28" rx="8" fill="#E8E6E4"/>
<path fill-rule="evenodd" clip-rule="evenodd" d="M8.67754 8.54421C8.98128 8.24047 9.47374 8.24047 9.77748 8.54421L14.1105 12.8773L18.4436 8.54422C18.7473 8.24048 19.2398 8.24048 19.5435 8.54422C19.8473 8.84796 19.8473 9.34042 19.5435 9.64416L15.2105 13.9772L19.677 18.4437C19.9807 18.7474 19.9807 19.2399 19.677 19.5436C19.3732 19.8474 18.8808 19.8474 18.577 19.5436L14.1105 15.0772L9.64403 19.5437C9.34029 19.8474 8.84783 19.8474 8.54409 19.5437C8.24035 19.2399 8.24035 18.7475 8.54409 18.4437L13.0106 13.9772L8.67754 9.64416C8.3738 9.34041 8.3738 8.84795 8.67754 8.54421Z" fill="#222120"/>
</svg>
