<svg width="28" height="28" viewBox="0 0 28 28" fill="none" xmlns="http://www.w3.org/2000/svg">
<path fill-rule="evenodd" clip-rule="evenodd" d="M7.43643 7.27842C7.80338 6.90719 8.39832 6.90719 8.76527 7.27842L14 12.5741L19.2347 7.27842C19.6017 6.9072 20.1966 6.9072 20.5636 7.27842C20.9305 7.64964 20.9305 8.25152 20.5636 8.62274L15.3288 13.9185L20.7248 19.3773C21.0917 19.7485 21.0917 20.3504 20.7248 20.7216C20.3578 21.0928 19.7629 21.0928 19.396 20.7216L14 15.2628L8.60405 20.7216C8.2371 21.0928 7.64216 21.0928 7.27521 20.7216C6.90826 20.3504 6.90826 19.7485 7.27521 19.3773L12.6712 13.9185L7.43643 8.62273C7.06948 8.25151 7.06948 7.64964 7.43643 7.27842Z" fill="#222120"/>
</svg>
