<svg width="28" height="28" viewBox="0 0 28 28" fill="none" xmlns="http://www.w3.org/2000/svg">
<path fill-rule="evenodd" clip-rule="evenodd" d="M13.9999 20.2222C17.4364 20.2222 20.2222 17.4364 20.2222 13.9999C20.2222 10.5635 17.4364 7.77772 13.9999 7.77772C10.5635 7.77772 7.77772 10.5635 7.77772 13.9999C7.77772 17.4364 10.5635 20.2222 13.9999 20.2222ZM13.9999 21.7777C18.2955 21.7777 21.7777 18.2955 21.7777 13.9999C21.7777 9.7044 18.2955 6.22217 13.9999 6.22217C9.7044 6.22217 6.22217 9.7044 6.22217 13.9999C6.22217 18.2955 9.7044 21.7777 13.9999 21.7777Z" fill="#222120"/>
<path fill-rule="evenodd" clip-rule="evenodd" d="M13.9999 9.72217C14.4295 9.72217 14.7777 10.0704 14.7777 10.4999V13.2222H17.4999C17.9295 13.2222 18.2777 13.5704 18.2777 13.9999C18.2777 14.4295 17.9295 14.7777 17.4999 14.7777H14.3888C13.7445 14.7777 13.2222 14.2554 13.2222 13.6111V10.4999C13.2222 10.0704 13.5704 9.72217 13.9999 9.72217Z" fill="#222120"/>
</svg>
