<svg width="36" height="36" viewBox="0 0 36 36" fill="none" xmlns="http://www.w3.org/2000/svg">
<path fill-rule="evenodd" clip-rule="evenodd" d="M13 14C14.1046 14 15 13.1046 15 12C15 10.8954 14.1046 10 13 10C11.8954 10 11 10.8954 11 12C11 13.1046 11.8954 14 13 14ZM13 8C14.8638 8 16.4299 9.27477 16.874 11H26C26.5523 11 27 11.4477 27 12C27 12.5523 26.5523 13 26 13H16.874C16.4299 14.7252 14.8638 16 13 16C10.7909 16 9 14.2091 9 12C9 9.79086 10.7909 8 13 8ZM23 21C21.8954 21 21 21.8954 21 23C21 24.1046 21.8954 25 23 25C24.1046 25 25 24.1046 25 23C25 21.8954 24.1046 21 23 21ZM23 19C21.1362 19 19.5701 20.2748 19.126 22L10 22C9.44771 22 9 22.4477 9 23C9 23.5523 9.44771 24 10 24L19.126 24C19.5701 25.7252 21.1362 27 23 27C25.2091 27 27 25.2091 27 23C27 20.7909 25.2091 19 23 19Z" fill="#222120"/>
</svg>
