<svg width="36" height="36" viewBox="0 0 36 36" fill="none" xmlns="http://www.w3.org/2000/svg">
<path fill-rule="evenodd" clip-rule="evenodd" d="M23.1447 15.5948C23.1447 15.5948 23.1447 15.5948 23.1447 15.5948V15.5948ZM23.0588 16.304C23.6835 17.2336 24.0877 18.2605 24.1657 19.2471C24.4473 22.81 21.7645 25.9531 18.1407 26.2396C14.5168 26.5261 11.3734 23.8436 11.0917 20.2808C10.9308 18.2448 11.7335 16.3507 13.134 15.0403C13.7476 14.4662 14.6409 13.5512 15.4086 12.4122C15.9174 11.6572 16.4179 10.735 16.7163 9.6946C17.6127 10.4664 18.6048 11.9333 18.9762 14.701C19.0774 15.4552 19.524 16.3407 20.4559 16.7643C20.953 16.9903 21.5759 17.0636 22.1993 16.8418C22.5497 16.7172 22.8337 16.5236 23.0588 16.304ZM20.6357 12.7502C19.6659 8.95154 17.4679 7.49907 16.0248 7.03699C15.4448 6.85128 15.0183 7.39457 14.9883 8.00278C14.8707 10.3829 12.8777 12.5412 11.7676 13.5799C9.94412 15.286 8.88676 17.767 9.09796 20.4384C9.46776 25.1159 13.5869 28.6058 18.2983 28.2334C23.0097 27.8609 26.5293 23.767 26.1594 19.0895C26.0054 17.1412 24.9881 15.2713 23.6627 13.8693C23.4358 13.6292 23.1428 13.5614 22.8581 13.6182C22.8186 13.6261 22.7792 13.6364 22.7402 13.649C22.4364 13.7469 22.1545 13.983 21.9888 14.2968C21.9754 14.3223 21.9627 14.3483 21.9509 14.3747C21.8891 14.5125 21.823 14.6404 21.7532 14.7561C21.4939 15.1864 21.0252 14.933 20.9584 14.4351C20.9506 14.3771 20.9426 14.3196 20.9343 14.2626C20.9162 14.1374 20.8969 14.0143 20.8764 13.8931C20.8316 13.6282 20.7813 13.3728 20.726 13.1267C20.6972 12.9987 20.6671 12.8732 20.6357 12.7502Z" fill="#222120"/>
</svg>
