<svg width="29" height="28" viewBox="0 0 29 28" fill="none" xmlns="http://www.w3.org/2000/svg">
<path fill-rule="evenodd" clip-rule="evenodd" d="M16.4772 14.7777C16.3329 16.8565 15.6158 18.7275 14.5315 20.1745C13.4369 18.7315 12.7096 16.8599 12.5571 14.7777H16.4772ZM18.0915 14.7777C17.9773 16.6435 17.4555 18.3854 16.6219 19.877C18.8948 19.1121 20.5879 17.1528 20.8946 14.7777H18.0915ZM20.8946 13.2222H18.0915C17.9773 11.3564 17.4555 9.61445 16.6218 8.12286C18.8948 8.88777 20.5879 10.8471 20.8946 13.2222ZM16.4772 13.2222H12.5513C12.6888 11.1265 13.4082 9.24004 14.4998 7.78326C15.6018 9.236 16.3315 11.1231 16.4772 13.2222ZM10.9373 13.2222C11.0452 11.3567 11.5605 9.61383 12.3878 8.11963C10.1101 8.88224 8.4126 10.8438 8.10543 13.2222H10.9373ZM8.10543 14.7777C8.4152 17.1762 10.1389 19.1508 12.4457 19.8994C11.5973 18.4048 11.0636 16.6545 10.9425 14.7777H8.10543ZM22.5556 13.9999C22.5556 18.2955 18.949 21.7777 14.5 21.7777C10.0511 21.7777 6.44446 18.2955 6.44446 13.9999C6.44446 9.7044 10.0511 6.22217 14.5 6.22217C18.949 6.22217 22.5556 9.7044 22.5556 13.9999Z" fill="#222120"/>
</svg>
