<svg width="36" height="36" viewBox="0 0 36 36" fill="none" xmlns="http://www.w3.org/2000/svg">
<path fill-rule="evenodd" clip-rule="evenodd" d="M11 12C11 11.4477 11.4477 11 12 11H24C24.5523 11 25 11.4477 25 12C25 12.5523 24.5523 13 24 13H12C11.4477 13 11 12.5523 11 12Z" fill="#222120"/>
<path fill-rule="evenodd" clip-rule="evenodd" d="M11 18C11 17.4477 11.4477 17 12 17H24C24.5523 17 25 17.4477 25 18C25 18.5523 24.5523 19 24 19H12C11.4477 19 11 18.5523 11 18Z" fill="#222120"/>
<path fill-rule="evenodd" clip-rule="evenodd" d="M11 24C11 23.4477 11.4477 23 12 23H24C24.5523 23 25 23.4477 25 24C25 24.5523 24.5523 25 24 25H12C11.4477 25 11 24.5523 11 24Z" fill="#222120"/>
</svg>
