<svg width="36" height="36" viewBox="0 0 36 36" fill="none" xmlns="http://www.w3.org/2000/svg">
<g clip-path="url(#clip0_770_2113)">
<path d="M16.9128 23.0003C16.9128 22.4482 17.3604 22.0007 17.9125 22.0007H17.9496C18.5017 22.0007 18.9493 22.4482 18.9493 23.0003C18.9493 23.5524 18.5017 24 17.9496 24H17.9125C17.3604 24 16.9128 23.5524 16.9128 23.0003ZM18.5522 12.0439C16.4546 11.744 14.6015 13.0136 14.0414 14.833C13.8582 15.4128 14.3062 16.0026 14.9273 16.0026H15.1309C15.5484 16.0026 15.8844 15.7127 16.027 15.3328C16.3528 14.4431 17.3201 13.8333 18.3689 14.0533C19.3362 14.2532 20.0489 15.1829 19.9675 16.1526C19.8657 17.4921 18.1805 17.6821 17.3354 18.9317C17.3354 18.9417 17.3252 18.9417 17.3252 18.9517C17.315 18.9716 17.3048 18.9816 17.2947 19.0016C17.203 19.1516 17.1114 19.3215 17.0401 19.5015C17.0299 19.5315 17.0095 19.5515 16.9994 19.5814C16.9892 19.6014 16.9892 19.6214 16.979 19.6514C16.9438 19.7493 16.9234 19.8614 16.9122 19.9832C16.8606 20.5432 17.3687 21.001 17.931 21.001C18.4934 21.001 18.9265 20.52 19.1854 20.0207C19.2011 19.9904 19.2174 19.9607 19.2344 19.9313C19.2547 19.9013 19.2649 19.8714 19.2853 19.8414C19.3667 19.7014 19.4686 19.5714 19.5704 19.4515C19.5806 19.4415 19.5907 19.4215 19.6009 19.4115C19.7027 19.2915 19.8147 19.1816 19.9369 19.0716C20.9144 18.1619 22.2381 17.4222 21.9632 15.5128C21.7188 13.7733 20.3239 12.3038 18.5522 12.0439Z" fill="black"/>
<circle cx="18" cy="18" r="10" stroke="black" stroke-width="2"/>
</g>
<defs>
<clipPath id="clip0_770_2113">
<rect width="36" height="36" fill="white"/>
</clipPath>
</defs>
</svg>
