<svg width="20" height="18" viewBox="0 0 32 28" fill="none" xmlns="http://www.w3.org/2000/svg">
  <path
    d="M0 2.46629C0 1.10419 1.14615 0 2.56 0H29.44C30.8538 0 32 1.10419 32 2.46629V19.1137C32 20.4758 30.8538 21.58 29.44 21.58H2.56C1.14615 21.58 0 20.4758 0 19.1137V2.46629Z"
    fill="#757575" />
  <path
    d="M0 25.6956C0 24.7591 0.787979 24 1.76 24H16H30.24C31.212 24 32 24.7591 32 25.6956C32 26.632 31.212 27.3911 30.24 27.3911H1.76C0.787979 27.3911 0 26.632 0 25.6956Z"
    fill="#757575" />
  <path fill-rule="evenodd" clip-rule="evenodd"
    d="M11.7245 6.51474C12.1967 6.0425 12.9624 6.0425 13.4346 6.51474L20.2752 13.3553C20.7474 13.8276 20.7474 14.5932 20.2752 15.0655C19.803 15.5377 19.0373 15.5377 18.565 15.0655L11.7245 8.22489C11.2522 7.75265 11.2522 6.98699 11.7245 6.51474Z"
    fill="white" />
  <path fill-rule="evenodd" clip-rule="evenodd"
    d="M20.2893 6.52871C20.7616 7.00096 20.7616 7.76662 20.2893 8.23886L13.4487 15.0795C12.9765 15.5517 12.2108 15.5517 11.7386 15.0795C11.2663 14.6072 11.2663 13.8416 11.7386 13.3693L18.5792 6.52871C19.0514 6.05647 19.8171 6.05647 20.2893 6.52871Z"
    fill="white" />
</svg>
