<svg width="20" height="18" viewBox="0 0 20 18" fill="none" xmlns="http://www.w3.org/2000/svg">
<path d="M0 1.54143C0 0.690122 0.716344 0 1.6 0H18.4C19.2837 0 20 0.690122 20 1.54143V11.9461C20 12.7974 19.2837 13.4875 18.4 13.4875H1.6C0.716344 13.4875 0 12.7974 0 11.9461V1.54143Z" fill="#757575"/>
<path d="M0 16.0597C0 15.4745 0.492487 15 1.1 15H10H18.9C19.5075 15 20 15.4745 20 16.0597C20 16.645 19.5075 17.1195 18.9 17.1195H1.1C0.492487 17.1195 0 16.645 0 16.0597Z" fill="#757575"/>
<path fill-rule="evenodd" clip-rule="evenodd" d="M13.6229 4.09877C13.9793 4.35034 14.0565 4.83262 13.7954 5.17598L10.4189 9.61573C9.93871 10.2471 8.95968 10.2459 8.48114 9.61338L6.65354 7.19754C6.39331 6.85355 6.47181 6.37146 6.82887 6.12075C7.18593 5.87005 7.68634 5.94567 7.94657 6.28966L9.45176 8.27932L12.5047 4.26497C12.7659 3.92161 13.2665 3.8472 13.6229 4.09877Z" fill="white"/>
</svg>
