<svg width="36" height="36" viewBox="0 0 36 36" fill="none" xmlns="http://www.w3.org/2000/svg">
<path d="M18.4249 26.9054C18.4901 26.8749 18.5524 26.8372 18.6105 26.7924C24.6026 22.3878 27.1088 19.1022 27.7798 16.6655C27.9235 16.1437 28 15.5944 28 15.0286C28 11.7245 25.3854 9 22.1041 9C20.5034 9 19.0578 9.65181 18 10.7005C16.9422 9.65181 15.4966 9 13.8959 9C10.6146 9 8 11.7245 8 15.0286C8 15.5944 8.0765 16.1437 8.22018 16.6655C8.89119 19.1022 11.3974 22.3878 17.3895 26.7924C17.4476 26.8372 17.5099 26.8749 17.5751 26.9054C17.7105 26.9692 17.8557 27.0002 18 27.0001C18.1443 27.0002 18.2895 26.9692 18.4249 26.9054Z" fill="#222120"/>
</svg>
