<svg width="37" height="36" viewBox="0 0 37 36" fill="none" xmlns="http://www.w3.org/2000/svg">
<path fill-rule="evenodd" clip-rule="evenodd" d="M10.5 15.0286C10.5 12.7783 12.2693 11 14.3959 11C15.7437 11 16.9419 11.7085 17.6456 12.8057C17.6865 12.873 17.7357 12.9361 17.7929 12.9931C17.9829 13.1834 18.2392 13.2856 18.5 13.2858C18.6412 13.286 18.7837 13.2562 18.9177 13.1944C19.0237 13.1458 19.1221 13.0783 19.2071 12.9931C19.2643 12.9361 19.3135 12.873 19.3544 12.8057C20.0581 11.7085 21.2563 11 22.6041 11C24.7307 11 26.5 12.7783 26.5 15.0286C26.5 15.4136 26.448 15.7844 26.3516 16.1345C25.8868 17.8225 23.9867 20.6296 18.5 24.7542C13.0133 20.6296 11.1132 17.8225 10.6484 16.1345C10.552 15.7844 10.5 15.4136 10.5 15.0286ZM18.9249 26.9054C18.9901 26.8749 19.0524 26.8372 19.1105 26.7924C25.1026 22.3878 27.6088 19.1022 28.2798 16.6655C28.4235 16.1437 28.5 15.5944 28.5 15.0286C28.5 11.7245 25.8854 9 22.6041 9C21.0034 9 19.5578 9.65181 18.5 10.7005C17.4422 9.65181 15.9966 9 14.3959 9C11.1146 9 8.5 11.7245 8.5 15.0286C8.5 15.5944 8.5765 16.1437 8.72018 16.6655C9.39119 19.1022 11.8974 22.3878 17.8895 26.7924C17.9476 26.8372 18.0099 26.8749 18.0751 26.9054C18.2105 26.9692 18.3557 27.0002 18.5 27.0001C18.6443 27.0002 18.7895 26.9692 18.9249 26.9054Z" fill="#222120"/>
</svg>
