<svg width="28" height="28" viewBox="0 0 28 28" fill="none" xmlns="http://www.w3.org/2000/svg">
<path fill-rule="evenodd" clip-rule="evenodd" d="M14 6.99989C11.1593 6.99989 8.8564 9.30277 8.8564 12.1435C8.8564 13.901 9.60879 15.652 10.6641 17.2259C11.7054 18.779 12.999 20.0958 14 20.9861C15.001 20.0958 16.2946 18.779 17.336 17.2259C18.3912 15.652 19.1436 13.9011 19.1436 12.1436C19.1436 9.30286 16.8408 6.99989 14 6.99989ZM7.30084 12.1435C7.30084 8.44366 10.3002 5.44434 14 5.44434C17.6999 5.44434 20.6992 8.44366 20.6992 12.1435C20.6992 14.3322 19.7709 16.3876 18.628 18.0922C17.4802 19.804 16.0715 21.2285 15.0059 22.1732C14.4305 22.6833 13.5695 22.6833 12.9941 22.1732C11.9285 21.2285 10.5198 19.804 9.37205 18.0922C8.22912 16.3876 7.30084 14.3322 7.30084 12.1435Z" fill="#222120"/>
<path fill-rule="evenodd" clip-rule="evenodd" d="M14 13.2221C14.6443 13.2221 15.1667 12.6998 15.1667 12.0555C15.1667 11.4111 14.6443 10.8888 14 10.8888C13.3557 10.8888 12.8333 11.4111 12.8333 12.0555C12.8333 12.6998 13.3557 13.2221 14 13.2221ZM14 14.7777C15.5034 14.7777 16.7222 13.5589 16.7222 12.0555C16.7222 10.552 15.5034 9.33325 14 9.33325C12.4966 9.33325 11.2778 10.552 11.2778 12.0555C11.2778 13.5589 12.4966 14.7777 14 14.7777Z" fill="#222120"/>
</svg>
