<svg width="36" height="36" viewBox="0 0 36 36" fill="none" xmlns="http://www.w3.org/2000/svg">
<path fill-rule="evenodd" clip-rule="evenodd" d="M18 8.99976C14.3476 8.99976 11.3868 11.9606 11.3868 15.613C11.3868 17.8727 12.3541 20.1239 13.7109 22.1475C15.0498 24.1443 16.713 25.8373 18 26.982C19.287 25.8373 20.9502 24.1443 22.2891 22.1475C23.6459 20.1239 24.6132 17.8728 24.6132 15.6131C24.6132 11.9607 21.6524 8.99976 18 8.99976ZM9.38678 15.613C9.38678 10.856 13.243 6.99976 18 6.99976C22.7569 6.99976 26.6132 10.856 26.6132 15.613C26.6132 18.427 25.4197 21.0697 23.9502 23.2613C22.4745 25.4622 20.6633 27.2937 19.2933 28.5082C18.5535 29.1641 17.4465 29.1641 16.7067 28.5082C15.3367 27.2937 13.5255 25.4622 12.0498 23.2613C10.5803 21.0697 9.38678 18.427 9.38678 15.613Z" fill="#222120"/>
<path fill-rule="evenodd" clip-rule="evenodd" d="M18 16.9998C18.8284 16.9998 19.5 16.3282 19.5 15.4998C19.5 14.6713 18.8284 13.9998 18 13.9998C17.1716 13.9998 16.5 14.6713 16.5 15.4998C16.5 16.3282 17.1716 16.9998 18 16.9998ZM18 18.9998C19.933 18.9998 21.5 17.4328 21.5 15.4998C21.5 13.5668 19.933 11.9998 18 11.9998C16.067 11.9998 14.5 13.5668 14.5 15.4998C14.5 17.4328 16.067 18.9998 18 18.9998Z" fill="#222120"/>
</svg>
