<svg width="28" height="28" viewBox="0 0 28 28" fill="none" xmlns="http://www.w3.org/2000/svg">
<path fill-rule="evenodd" clip-rule="evenodd" d="M14 6.99989C11.1592 6.99989 8.85634 9.30277 8.85634 12.1435C8.85634 13.901 9.60873 15.652 10.664 17.2259C11.7054 18.779 12.999 20.0958 14 20.9861C15.0009 20.0958 16.2945 18.779 17.3359 17.2259C18.3912 15.652 19.1436 13.9011 19.1436 12.1436C19.1436 9.30286 16.8407 6.99989 14 6.99989ZM7.30078 12.1435C7.30078 8.44366 10.3001 5.44434 14 5.44434C17.6998 5.44434 20.6991 8.44366 20.6991 12.1435C20.6991 14.3322 19.7708 16.3876 18.6279 18.0922C17.4801 19.804 16.0714 21.2285 15.0059 22.1732C14.4305 22.6833 13.5694 22.6833 12.994 22.1732C11.9285 21.2285 10.5198 19.804 9.37199 18.0922C8.22906 16.3876 7.30078 14.3322 7.30078 12.1435Z" fill="#222120"/>
<path fill-rule="evenodd" clip-rule="evenodd" d="M14.0001 13.2221C14.6444 13.2221 15.1667 12.6998 15.1667 12.0555C15.1667 11.4111 14.6444 10.8888 14.0001 10.8888C13.3557 10.8888 12.8334 11.4111 12.8334 12.0555C12.8334 12.6998 13.3557 13.2221 14.0001 13.2221ZM14.0001 14.7777C15.5035 14.7777 16.7223 13.5589 16.7223 12.0555C16.7223 10.552 15.5035 9.33325 14.0001 9.33325C12.4966 9.33325 11.2778 10.552 11.2778 12.0555C11.2778 13.5589 12.4966 14.7777 14.0001 14.7777Z" fill="#222120"/>
</svg>
