<svg width="21" height="20" viewBox="0 0 21 20" fill="none" xmlns="http://www.w3.org/2000/svg">
<path fill-rule="evenodd" clip-rule="evenodd" d="M8.1111 9.56092V12.7777C8.1111 14.005 9.10603 15 10.3333 15H13.7112C14.1673 15 14.5771 14.7212 14.7447 14.297L16.2891 10.3865C16.3917 10.1266 16.4444 9.84962 16.4444 9.57018V9.25236C16.4444 8.63871 15.947 8.14125 15.3333 8.14125H13.5626C13.0759 8.14125 12.8244 7.55978 13.1578 7.20516L13.7608 6.56375C13.9021 6.38085 14.1563 5.86416 14.0433 5.26059C13.9922 4.98754 13.8332 4.72292 13.646 4.49592C13.3118 4.09073 12.7144 4.15069 12.3376 4.51659L8.78511 7.96677C8.35424 8.38523 8.1111 8.96029 8.1111 9.56092ZM4.77777 9.99996C4.77777 9.38631 5.27523 8.88885 5.88888 8.88885C6.50253 8.88885 6.99999 9.38631 6.99999 9.99996V13.8889C6.99999 14.5025 6.50253 15 5.88888 15C5.27523 15 4.77777 14.5025 4.77777 13.8889V9.99996Z" fill="white"/>
</svg>
