<svg width="25" height="24" viewBox="0 0 25 24" fill="none" xmlns="http://www.w3.org/2000/svg">
<path fill-rule="evenodd" clip-rule="evenodd" d="M10.0556 11.4731V15.3333C10.0556 16.806 11.2246 18 12.6667 18H16.6357C17.1717 18 17.6532 17.6655 17.85 17.1564L19.6647 12.4638C19.7853 12.1519 19.8472 11.8195 19.8472 11.4842V11.1028C19.8472 10.3665 19.2627 9.7695 18.5417 9.7695H16.4611C15.8892 9.7695 15.5937 9.07174 15.9855 8.6462L16.694 7.8765C16.86 7.65702 17.1587 7.03699 17.0259 6.31271C16.9659 5.98505 16.779 5.6675 16.559 5.39511C16.1664 4.90888 15.4644 4.98083 15.0217 5.41991L10.8475 9.56013C10.3413 10.0623 10.0556 10.7523 10.0556 11.4731ZM6.13892 12C6.13892 11.2636 6.72343 10.6666 7.44447 10.6666C8.16551 10.6666 8.75003 11.2636 8.75003 12V16.6666C8.75003 17.403 8.16551 18 7.44447 18C6.72343 18 6.13892 17.403 6.13892 16.6666V12Z" fill="white"/>
</svg>
