<svg width="28" height="28" viewBox="0 0 28 28" fill="none" xmlns="http://www.w3.org/2000/svg">
<path fill-rule="evenodd" clip-rule="evenodd" d="M8.85506 7.60392C9.6171 6.84188 10.8526 6.84188 11.6147 7.60392L13.2743 9.26359C14.0364 10.0256 14.0364 11.2611 13.2743 12.0232L12.6988 12.5987C13.0664 13.11 13.4806 13.599 13.9416 14.06C14.4005 14.5189 14.8871 14.9314 15.3959 15.2977L15.9621 14.7315C16.7242 13.9695 17.9597 13.9695 18.7217 14.7315L20.3814 16.3912C21.1434 17.1532 21.1434 18.3887 20.3814 19.1508L18.808 20.7241C18.2437 21.3793 17.31 21.7057 16.3954 21.3707C14.2205 20.5741 12.1811 19.3031 10.4398 17.5618C8.6985 15.8205 7.42751 13.7811 6.63089 11.6062C6.31741 10.7503 6.58199 9.86988 7.16068 9.29847L8.85506 7.60392ZM10.5147 8.70387C10.3602 8.54931 10.1096 8.54931 9.95502 8.70385C9.95501 8.70386 9.95503 8.70385 9.95502 8.70385L8.25441 10.4046C8.06804 10.5881 8.00646 10.8388 8.09155 11.0712C8.81205 13.0382 9.96163 14.8838 11.5397 16.4619C13.1178 18.04 14.9634 19.1896 16.9304 19.91C17.1771 20.0004 17.451 19.9236 17.6374 19.6995L17.6602 19.672L19.2814 18.0508C19.436 17.8963 19.436 17.6457 19.2814 17.4911L17.6218 15.8314C17.4672 15.6769 17.2166 15.6769 17.0621 15.8314L15.5979 17.2956L15.0707 16.9572C14.2805 16.4499 13.5325 15.8508 12.8416 15.16C12.1485 14.4669 11.5477 13.7162 11.0394 12.9231L10.7016 12.396L12.1744 10.9232C12.3289 10.7687 12.3289 10.5181 12.1744 10.3635L10.5147 8.70387Z" fill="#222120"/>
</svg>
