<svg width="40" height="40" viewBox="0 0 40 40" fill="none" xmlns="http://www.w3.org/2000/svg">
<rect width="40" height="40" rx="12" fill="#FFA233"/>
<path fill-rule="evenodd" clip-rule="evenodd" d="M22.5563 13.7825C24.8995 16.1257 24.8995 19.9246 22.5563 22.2678C20.2132 24.6109 16.4142 24.6109 14.0711 22.2678C11.7279 19.9246 11.7279 16.1257 14.0711 13.7825C16.4142 11.4394 20.2132 11.4394 22.5563 13.7825ZM24.6327 22.9326C27.0765 19.7941 26.8557 15.2535 23.9706 12.3683C20.8464 9.2441 15.781 9.2441 12.6569 12.3683C9.53266 15.4925 9.53266 20.5578 12.6569 23.682C15.542 26.5672 20.0827 26.7879 23.2212 24.3442C23.2347 24.3595 23.2488 24.3745 23.2635 24.3891L27.5061 28.6317C27.8966 29.0223 28.5298 29.0223 28.9203 28.6317C29.3108 28.2412 29.3108 27.6081 28.9203 27.2175L24.6777 22.9749C24.663 22.9603 24.648 22.9462 24.6327 22.9326Z" fill="white"/>
</svg>
