<svg width="36" height="36" viewBox="0 0 36 36" fill="none" xmlns="http://www.w3.org/2000/svg">
<path fill-rule="evenodd" clip-rule="evenodd" d="M16.5858 9.99991C17.3668 9.21886 18.6332 9.21886 19.4142 9.99991L23.7024 14.2881C24.0929 14.6786 24.0929 15.3118 23.7024 15.7023C23.3119 16.0928 22.6787 16.0928 22.2882 15.7023L19 12.4141L19 20.9999C19 21.5522 18.5523 21.9999 18 21.9999C17.4477 21.9999 17 21.5522 17 20.9999L17 12.4141L13.7118 15.7023C13.3213 16.0928 12.6881 16.0928 12.2976 15.7023C11.9071 15.3118 11.9071 14.6786 12.2976 14.2881L16.5858 9.99991Z" fill="#222120"/>
<path fill-rule="evenodd" clip-rule="evenodd" d="M11 20C11.5523 20 12 20.4477 12 21V24C12 24.5523 12.4477 25 13 25H23C23.5523 25 24 24.5523 24 24V21C24 20.4477 24.4477 20 25 20C25.5523 20 26 20.4477 26 21V24C26 25.6569 24.6569 27 23 27H13C11.3431 27 10 25.6569 10 24V21C10 20.4477 10.4477 20 11 20Z" fill="#222120"/>
</svg>
