<svg width="52" height="52" viewBox="0 0 52 52" fill="none" xmlns="http://www.w3.org/2000/svg">
<path fill-rule="evenodd" clip-rule="evenodd" d="M13 28.8889C11.4045 28.8889 10.1111 27.5955 10.1111 26V15.8889C10.1111 14.2934 11.4045 13 13 13C14.5955 13 15.8889 14.2934 15.8889 15.8889V26C15.8889 27.5955 14.5955 28.8889 13 28.8889Z" fill="#AFAAA3"/>
<path d="M20.7539 15.8242V26.7174C20.7539 27.7985 21.1915 28.8336 21.9671 29.5869L32.26 39.5832C32.9381 40.2418 33.9976 40.3425 34.6612 39.6692C35.3376 38.9831 36.0022 38.0839 36.1776 37.1466C36.4714 35.5773 35.8104 34.2339 35.4432 33.7584L33.1713 31.3419C32.5712 30.7035 33.0238 29.6569 33.8999 29.6569H40.4206C41.5251 29.6569 42.4206 28.7615 42.4206 27.6569V25.6033C42.4206 25.1003 42.3257 24.6019 42.1409 24.134L37.7791 13.0896C37.4775 12.326 36.7399 11.8242 35.9189 11.8242H24.7539C22.5448 11.8242 20.7539 13.6151 20.7539 15.8242Z" fill="white"/>
<path fill-rule="evenodd" clip-rule="evenodd" d="M30.2049 41.2929C31.5825 42.6308 34.1536 43.1378 35.7273 41.2294C36.2874 40.5502 36.869 39.6389 37.0658 38.5881C37.4539 36.5151 36.6049 34.7636 36.0548 34.0512L36.0119 33.9957L34.3961 32.277H39.0001C41.3933 32.277 43.3334 30.3369 43.3334 27.9437V27.1173C43.3334 26.2092 43.1621 25.3091 42.8285 24.4644L38.813 14.297C38.1596 12.6426 36.5614 11.5555 34.7826 11.5555H26.0001C22.0113 11.5555 18.7778 14.789 18.7778 18.7777V27.1414C18.7778 29.0935 19.568 30.9624 20.9683 32.3224L30.2049 41.2929ZM33.0147 39.5922C32.7731 39.582 32.4703 39.4659 32.2176 39.2205L22.981 30.25C22.1408 29.434 21.6667 28.3127 21.6667 27.1414V18.7777C21.6667 16.3845 23.6068 14.4444 26.0001 14.4444H34.7826C35.3755 14.4444 35.9083 14.8067 36.1261 15.3582L40.1416 25.5256C40.3417 26.0324 40.4445 26.5724 40.4445 27.1173V27.9437C40.4445 28.7414 39.7978 29.3881 39.0001 29.3881H34.3961C31.8651 29.3881 30.5577 32.4117 32.2913 34.2558L33.7994 35.8598C34.0001 36.1535 34.4153 37.0464 34.2262 38.0565C34.1571 38.4254 33.9118 38.8903 33.4985 39.3914C33.3823 39.5323 33.2313 39.6014 33.0147 39.5922Z" fill="#AFAAA3"/>
</svg>
