<svg width="52" height="52" viewBox="0 0 52 52" fill="none" xmlns="http://www.w3.org/2000/svg">
<path fill-rule="evenodd" clip-rule="evenodd" d="M13 24.5557C11.4045 24.5557 10.1111 25.8491 10.1111 27.4446V37.5557C10.1111 39.1512 11.4045 40.4446 13 40.4446C14.5955 40.4446 15.8889 39.1512 15.8889 37.5557V27.4446C15.8889 25.8491 14.5955 24.5557 13 24.5557Z" fill="#FFA233"/>
<path d="M20.2222 36.7131V25.8199C20.2222 24.7388 20.6598 23.7037 21.4354 22.9505L31.7282 12.9541C32.4064 12.2955 33.4659 12.1949 34.1295 12.8681C34.8058 13.5543 35.4704 14.4534 35.6459 15.3907C35.9397 16.96 35.2787 18.3034 34.9114 18.779L32.6396 21.1955C32.0395 21.8338 32.492 22.8805 33.3682 22.8805H39.8888C40.9934 22.8805 41.8888 23.7759 41.8888 24.8805V26.934C41.8888 27.437 41.794 27.9355 41.6092 28.4033L37.2473 39.4478C36.9457 40.2114 36.2081 40.7131 35.3871 40.7131H24.2222C22.013 40.7131 20.2222 38.9222 20.2222 36.7131Z" fill="white"/>
<path fill-rule="evenodd" clip-rule="evenodd" d="M30.2049 12.1515C31.5825 10.8135 34.1536 10.3065 35.7273 12.215C36.2874 12.8942 36.869 13.8054 37.0658 14.8563C37.4539 16.9292 36.6049 18.6808 36.0548 19.3931L36.0119 19.4486L34.3961 21.1673H39.0001C41.3933 21.1673 43.3334 23.1074 43.3334 25.5007V26.327C43.3334 27.2352 43.1621 28.1352 42.8285 28.9799L38.813 39.1473C38.1596 40.8018 36.5614 41.8889 34.7826 41.8889H26.0001C22.0113 41.8889 18.7778 38.6554 18.7778 34.6666V26.3029C18.7778 24.3509 19.568 22.4819 20.9683 21.1219L30.2049 12.1515ZM33.0147 13.8521C32.7731 13.8623 32.4703 13.9784 32.2176 14.2238L22.981 23.1943C22.1408 24.0103 21.6667 25.1317 21.6667 26.3029V34.6666C21.6667 37.0599 23.6068 39 26.0001 39H34.7826C35.3755 39 35.9083 38.6376 36.1261 38.0861L40.1416 27.9187C40.3417 27.4119 40.4445 26.8719 40.4445 26.327V25.5007C40.4445 24.7029 39.7978 24.0562 39.0001 24.0562H34.3961C31.8651 24.0562 30.5577 21.0326 32.2913 19.1886L33.7994 17.5845C34.0001 17.2908 34.4153 16.3979 34.2262 15.3879C34.1571 15.0189 33.9118 14.5541 33.4985 14.0529C33.3823 13.912 33.2313 13.843 33.0147 13.8521Z" fill="#FFA233"/>
</svg>
