<svg width="40" height="40" viewBox="0 0 40 40" fill="none" xmlns="http://www.w3.org/2000/svg">
<circle cx="20" cy="20" r="19" fill="#FFF7EE" stroke="#FFD9AB" stroke-width="2"/>
<path d="M12 17.5C12 18.3284 11.3284 19 10.5 19C9.67157 19 9 18.3284 9 17.5C9 16.6716 9.67157 16 10.5 16C11.3284 16 12 16.6716 12 17.5Z" fill="#FFA233"/>
<path d="M32 17.5C32 18.3284 31.3284 19 30.5 19C29.6716 19 29 18.3284 29 17.5C29 16.6716 29.6716 16 30.5 16C31.3284 16 32 16.6716 32 17.5Z" fill="#FFA233"/>
<path d="M19.4046 23.2582C19.4046 23.0136 19.4291 22.7935 19.478 22.5978C19.5339 22.4022 19.6282 22.2147 19.761 22.0353C19.9008 21.856 20.0964 21.6726 20.348 21.4851C20.5297 21.3465 20.6695 21.2242 20.7673 21.1182C20.8651 21.0122 20.9315 20.9063 20.9665 20.8003C21.0014 20.6861 21.0189 20.5639 21.0189 20.4334C21.0189 20.2378 20.963 20.091 20.8512 19.9932C20.7463 19.8872 20.6136 19.8342 20.4528 19.8342C20.2432 19.8342 19.9916 19.8872 19.6981 19.9932C19.4116 20.0992 19.0971 20.2582 18.7547 20.4701L18 18.8438C18.3843 18.5829 18.7932 18.3791 19.2264 18.2323C19.6597 18.0774 20.1279 18 20.631 18C21.3857 18 21.9693 18.1997 22.3816 18.5992C22.7939 18.9986 23 19.5245 23 20.1766C23 20.4864 22.9616 20.7717 22.8847 21.0326C22.8148 21.2935 22.696 21.538 22.5283 21.7663C22.3676 21.9864 22.1474 22.2065 21.8679 22.4266C21.7002 22.5571 21.5674 22.6793 21.4696 22.7935C21.3788 22.8995 21.3124 23.0054 21.2704 23.1114C21.2355 23.2174 21.218 23.3356 21.218 23.466V23.7717H19.4046V23.2582ZM19.2474 25.8628C19.2474 25.4389 19.3557 25.1413 19.5723 24.9701C19.7959 24.7989 20.058 24.7133 20.3585 24.7133C20.659 24.7133 20.914 24.7989 21.1237 24.9701C21.3403 25.1413 21.4486 25.4389 21.4486 25.8628C21.4486 26.2622 21.3403 26.5516 21.1237 26.731C20.914 26.9103 20.659 27 20.3585 27C20.058 27 19.7959 26.9103 19.5723 26.731C19.3557 26.5516 19.2474 26.2622 19.2474 25.8628Z" fill="#FFA233"/>
</svg>
