<svg width="40" height="46" viewBox="0 0 40 46" fill="none" xmlns="http://www.w3.org/2000/svg">
<g filter="url(#filter0_d_531_1539)">
<mask id="path-1-outside-1_531_1539" maskUnits="userSpaceOnUse" x="10" y="6" width="20" height="26" fill="black">
<rect fill="white" x="10" y="6" width="20" height="26"/>
<path fill-rule="evenodd" clip-rule="evenodd" d="M29 16C29 11.0294 24.9706 7 20 7C15.0294 7 11 11.0294 11 16C11 22.07 16.2325 27.704 19.3679 30.4588C19.7305 30.7774 20.2695 30.7774 20.6321 30.4588C23.7675 27.704 29 22.07 29 16Z"/>
</mask>
<path fill-rule="evenodd" clip-rule="evenodd" d="M29 16C29 11.0294 24.9706 7 20 7C15.0294 7 11 11.0294 11 16C11 22.07 16.2325 27.704 19.3679 30.4588C19.7305 30.7774 20.2695 30.7774 20.6321 30.4588C23.7675 27.704 29 22.07 29 16Z" fill="#FF7CBB"/>
<path d="M19.3679 30.4588L18.7079 31.21L18.7079 31.2101L19.3679 30.4588ZM20.6321 30.4588L19.9721 29.7076H19.9721L20.6321 30.4588ZM20 8C24.4183 8 28 11.5817 28 16H30C30 10.4772 25.5228 6 20 6V8ZM12 16C12 11.5817 15.5817 8 20 8V6C14.4772 6 10 10.4772 10 16H12ZM10 16C10 19.3152 11.4236 22.4383 13.18 25.0332C14.9431 27.6379 17.1007 29.798 18.7079 31.21L20.0279 29.7076C18.4997 28.3649 16.4733 26.3306 14.8363 23.9121C13.1926 21.4837 12 18.7548 12 16H10ZM18.7079 31.2101C19.448 31.8604 20.552 31.8604 21.2921 31.21L19.9721 29.7076C19.9742 29.7057 19.9785 29.7028 19.9843 29.7007C19.9896 29.6987 19.995 29.6978 20 29.6978C20.005 29.6978 20.0104 29.6987 20.0157 29.7007C20.0215 29.7028 20.0258 29.7057 20.0279 29.7076L18.7079 31.2101ZM21.2921 31.21C22.8993 29.798 25.0569 27.6379 26.82 25.0332C28.5764 22.4383 30 19.3152 30 16H28C28 18.7548 26.8074 21.4837 25.1637 23.9121C23.5267 26.3306 21.5003 28.3649 19.9721 29.7076L21.2921 31.21Z" fill="white" mask="url(#path-1-outside-1_531_1539)"/>
</g>
<path d="M20.2125 21.491C20.245 21.4758 20.2762 21.4569 20.3052 21.4345C23.3013 19.2322 24.5544 17.5894 24.8899 16.3711C24.9618 16.1102 25 15.8355 25 15.5526C25 13.9006 23.6927 12.5383 22.0521 12.5383C21.2517 12.5383 20.5289 13.014 20 13.5383C19.4711 13.014 18.7483 12.5383 17.9479 12.5383C16.3073 12.5383 15 13.9006 15 15.5526C15 15.8355 15.0382 16.1102 15.1101 16.3711C15.4456 17.5894 16.6987 19.2322 19.6948 21.4345C19.7238 21.4569 19.755 21.4758 19.7875 21.491C19.8553 21.5229 19.9279 21.5384 20 21.5383C20.0721 21.5384 20.1447 21.5229 20.2125 21.491Z" fill="white"/>
<defs>
<filter id="filter0_d_531_1539" x="0" y="0" width="40" height="45.6978" filterUnits="userSpaceOnUse" color-interpolation-filters="sRGB">
<feFlood flood-opacity="0" result="BackgroundImageFix"/>
<feColorMatrix in="SourceAlpha" type="matrix" values="0 0 0 0 0 0 0 0 0 0 0 0 0 0 0 0 0 0 127 0" result="hardAlpha"/>
<feOffset dy="4"/>
<feGaussianBlur stdDeviation="5"/>
<feComposite in2="hardAlpha" operator="out"/>
<feColorMatrix type="matrix" values="0 0 0 0 0 0 0 0 0 0 0 0 0 0 0 0 0 0 0.15 0"/>
<feBlend mode="normal" in2="BackgroundImageFix" result="effect1_dropShadow_531_1539"/>
<feBlend mode="normal" in="SourceGraphic" in2="effect1_dropShadow_531_1539" result="shape"/>
</filter>
</defs>
</svg>
