<svg width="42" height="50" viewBox="0 0 42 50" fill="none" xmlns="http://www.w3.org/2000/svg">
<g filter="url(#filter0_d_531_1539)">
<mask id="path-1-outside-1_531_1539" maskUnits="userSpaceOnUse" x="10" y="6.66675" width="22" height="29" fill="black">
<rect fill="white" x="10" y="6.66675" width="22" height="29"/>
<path fill-rule="evenodd" clip-rule="evenodd" d="M31 17.6667C31 12.1439 26.5228 7.66675 21 7.66675C15.4772 7.66675 11 12.1439 11 17.6667C11 24.4562 16.8917 30.7547 20.3671 33.7929C20.7305 34.1106 21.2695 34.1106 21.6329 33.7929C25.1083 30.7547 31 24.4562 31 17.6667Z"/>
</mask>
<path fill-rule="evenodd" clip-rule="evenodd" d="M31 17.6667C31 12.1439 26.5228 7.66675 21 7.66675C15.4772 7.66675 11 12.1439 11 17.6667C11 24.4562 16.8917 30.7547 20.3671 33.7929C20.7305 34.1106 21.2695 34.1106 21.6329 33.7929C25.1083 30.7547 31 24.4562 31 17.6667Z" fill="#FF7CBB"/>
<path d="M20.3671 33.7929L19.7089 34.5458L19.7089 34.5458L20.3671 33.7929ZM21.6329 33.7929L22.2911 34.5458L22.2911 34.5458L21.6329 33.7929ZM21 8.66675C25.9706 8.66675 30 12.6962 30 17.6667H32C32 11.5916 27.0751 6.66675 21 6.66675V8.66675ZM12 17.6667C12 12.6962 16.0294 8.66675 21 8.66675V6.66675C14.9249 6.66675 10 11.5916 10 17.6667H12ZM10 17.6667C10 21.3434 11.5898 24.8132 13.5535 27.6991C15.5241 30.5951 17.9316 32.9921 19.7089 34.5458L21.0252 33.0401C19.3271 31.5556 17.0511 29.2842 15.207 26.574C13.356 23.8537 12 20.7796 12 17.6667H10ZM19.7089 34.5458C20.4493 35.193 21.5507 35.193 22.2911 34.5458L20.9748 33.0401C20.9767 33.0384 20.9806 33.0358 20.9859 33.0338C20.9907 33.032 20.9955 33.0312 21 33.0312C21.0045 33.0312 21.0093 33.032 21.0141 33.0338C21.0194 33.0358 21.0233 33.0384 21.0252 33.0401L19.7089 34.5458ZM22.2911 34.5458C24.0684 32.9921 26.4759 30.5951 28.4465 27.6991C30.4102 24.8132 32 21.3434 32 17.6667H30C30 20.7796 28.644 23.8537 26.793 26.574C24.9489 29.2842 22.6729 31.5556 20.9748 33.0401L22.2911 34.5458Z" fill="white" mask="url(#path-1-outside-1_531_1539)"/>
</g>
<path d="M21.2361 23.768C21.2723 23.751 21.3069 23.7301 21.3392 23.7052C24.6681 21.2582 26.0605 19.4329 26.4332 18.0791C26.5131 17.7893 26.5556 17.4841 26.5556 17.1698C26.5556 15.3341 25.103 13.8206 23.2801 13.8206C22.3908 13.8206 21.5877 14.349 21 14.9317C20.4124 14.349 19.6092 13.8206 18.7199 13.8206C16.897 13.8206 15.4445 15.3341 15.4445 17.1698C15.4445 17.4841 15.487 17.7893 15.5668 18.0791C15.9396 19.4329 17.3319 21.2582 20.6609 23.7052C20.6931 23.7301 20.7277 23.751 20.7639 23.768C20.8392 23.8034 20.9199 23.8206 21 23.8206C21.0802 23.8206 21.1608 23.8034 21.2361 23.768Z" fill="white"/>
<defs>
<filter id="filter0_d_531_1539" x="0" y="0.666748" width="42" height="48.3645" filterUnits="userSpaceOnUse" color-interpolation-filters="sRGB">
<feFlood flood-opacity="0" result="BackgroundImageFix"/>
<feColorMatrix in="SourceAlpha" type="matrix" values="0 0 0 0 0 0 0 0 0 0 0 0 0 0 0 0 0 0 127 0" result="hardAlpha"/>
<feOffset dy="4"/>
<feGaussianBlur stdDeviation="5"/>
<feComposite in2="hardAlpha" operator="out"/>
<feColorMatrix type="matrix" values="0 0 0 0 0 0 0 0 0 0 0 0 0 0 0 0 0 0 0.15 0"/>
<feBlend mode="normal" in2="BackgroundImageFix" result="effect1_dropShadow_531_1539"/>
<feBlend mode="normal" in="SourceGraphic" in2="effect1_dropShadow_531_1539" result="shape"/>
</filter>
</defs>
</svg>
