<svg width="56" height="62" viewBox="0 0 56 62" fill="none" xmlns="http://www.w3.org/2000/svg">
<g filter="url(#filter0_d_528_876)">
<mask id="path-1-outside-1_528_876" maskUnits="userSpaceOnUse" x="13" y="8.33325" width="30" height="40" fill="black">
<rect fill="white" x="13" y="8.33325" width="30" height="40"/>
<path fill-rule="evenodd" clip-rule="evenodd" d="M42 23.3333C42 15.6013 35.732 9.33325 28 9.33325C20.268 9.33325 14 15.6013 14 23.3333C14 33.006 22.5416 41.967 27.3679 46.1305C27.7334 46.4458 28.2666 46.4458 28.6321 46.1305C33.4584 41.967 42 33.006 42 23.3333Z"/>
</mask>
<path fill-rule="evenodd" clip-rule="evenodd" d="M42 23.3333C42 15.6013 35.732 9.33325 28 9.33325C20.268 9.33325 14 15.6013 14 23.3333C14 33.006 22.5416 41.967 27.3679 46.1305C27.7334 46.4458 28.2666 46.4458 28.6321 46.1305C33.4584 41.967 42 33.006 42 23.3333Z" fill="#FFA233"/>
<path d="M27.3679 46.1305L26.7147 46.8877L27.3679 46.1305ZM28.6321 46.1305L29.2853 46.8877L28.6321 46.1305ZM28 10.3333C35.1797 10.3333 41 16.1536 41 23.3333H43C43 15.049 36.2843 8.33325 28 8.33325V10.3333ZM15 23.3333C15 16.1536 20.8203 10.3333 28 10.3333V8.33325C19.7157 8.33325 13 15.049 13 23.3333H15ZM13 23.3333C13 28.456 15.256 33.3143 18.051 37.3657C20.8535 41.4279 24.2616 44.7714 26.7147 46.8877L28.0211 45.3733C25.648 43.3261 22.3721 40.1073 19.6972 36.23C17.0148 32.3418 15 27.8832 15 23.3333H13ZM26.7147 46.8877C27.4555 47.5268 28.5445 47.5268 29.2853 46.8877L27.9789 45.3733C27.9788 45.3734 27.9795 45.3728 27.981 45.3719C27.9824 45.3711 27.9842 45.3702 27.9864 45.3694C27.9907 45.3678 27.9954 45.367 28 45.367C28.0046 45.367 28.0093 45.3678 28.0136 45.3694C28.0158 45.3702 28.0176 45.3711 28.019 45.3719C28.0205 45.3728 28.0212 45.3734 28.0211 45.3733L26.7147 46.8877ZM29.2853 46.8877C31.7384 44.7714 35.1465 41.4279 37.949 37.3657C40.744 33.3143 43 28.456 43 23.3333H41C41 27.8832 38.9852 32.3418 36.3028 36.23C33.6279 40.1073 30.3521 43.3261 27.9789 45.3733L29.2853 46.8877Z" fill="white" mask="url(#path-1-outside-1_528_876)"/>
</g>
<ellipse cx="28" cy="23.3334" rx="7.77778" ry="7.77778" fill="white"/>
<defs>
<filter id="filter0_d_528_876" x="3" y="2.33325" width="50" height="59.0337" filterUnits="userSpaceOnUse" color-interpolation-filters="sRGB">
<feFlood flood-opacity="0" result="BackgroundImageFix"/>
<feColorMatrix in="SourceAlpha" type="matrix" values="0 0 0 0 0 0 0 0 0 0 0 0 0 0 0 0 0 0 127 0" result="hardAlpha"/>
<feOffset dy="4"/>
<feGaussianBlur stdDeviation="5"/>
<feComposite in2="hardAlpha" operator="out"/>
<feColorMatrix type="matrix" values="0 0 0 0 0 0 0 0 0 0 0 0 0 0 0 0 0 0 0.15 0"/>
<feBlend mode="normal" in2="BackgroundImageFix" result="effect1_dropShadow_528_876"/>
<feBlend mode="normal" in="SourceGraphic" in2="effect1_dropShadow_528_876" result="shape"/>
</filter>
</defs>
</svg>
